<?xml version="1.0" encoding="utf-8"?>
<!-- Generator: Adobe Illustrator 19.2.1, SVG Export Plug-In . SVG Version: 6.00 Build 0)  -->
<svg version="1.1" id="layer" xmlns="http://www.w3.org/2000/svg" xmlns:xlink="http://www.w3.org/1999/xlink" x="0px" y="0px"
	 viewBox="0 0 652 652" style="enable-background:new 0 0 652 652;" xml:space="preserve">
<g id="Page-1">
	<g id="A3" transform="translate(-128.000000, -334.000000)">
		<g id="MathWallet_Logo_Horizontal" transform="translate(128.000000, 334.000000)">
			<path id="Combined-Shape" d="M193.9,350.6v-51.1h9.6l15.6,24.2l15.6-24.2h9.6v51.1h-9V314L219,338.1h-0.3l-16-23.9v36.5H193.9z
				 M267.2,351.4c-7.2,0-13.7-4.2-13.7-11.9v-0.1c0-8.3,6.5-12.4,15.9-12.4c4.3,0,7.4,0.7,10.4,1.6v-0.9c0-5.5-3.4-8.4-9.6-8.4
				c-4.3,0-7.5,0.9-11,2.4l-2.3-6.9c4.2-1.9,8.4-3.1,14.5-3.1c5.8,0,10.1,1.5,12.8,4.3c2.8,2.8,4.2,6.9,4.2,11.9v22.9h-8.6v-4.8
				C277.2,348.9,273.1,351.4,267.2,351.4z M269.7,345c5.8,0,10.3-3.4,10.3-8.3v-2.6c-2.3-0.9-5.3-1.5-8.8-1.5
				c-5.7,0-9.1,2.4-9.1,6.4v0.1C262.2,342.9,265.5,345,269.7,345z M311.4,351.3c-6.5,0-11.1-2.8-11.1-11.3v-20.3h-4.9v-7.6h4.9
				v-10.6h8.8v10.6h10.4v7.6h-10.4v18.9c0,3.4,1.8,4.8,4.7,4.8c2,0,3.7-0.4,5.5-1.3v7.2C317.2,350.6,314.8,351.3,311.4,351.3z
				 M328.4,350.6v-53.3h8.8V318c2.5-3.6,6.1-6.7,12-6.7c8.7,0,13.7,5.8,13.7,14.7v24.6h-8.8v-21.9c0-6-3-9.4-8.3-9.4
				c-5.1,0-8.7,3.6-8.7,9.6v21.8H328.4z M410.2,351l-17.8-51.5h9.7l12.2,37.9l12.6-38h7.6l12.6,38l12.2-37.9h9.4L450.9,351h-7.8
				l-12.6-36.7L417.9,351H410.2z M482.7,351.4c-7.2,0-13.7-4.2-13.7-11.9v-0.1c0-8.3,6.5-12.4,15.9-12.4c4.3,0,7.4,0.7,10.4,1.6
				v-0.9c0-5.5-3.4-8.4-9.6-8.4c-4.3,0-7.5,0.9-11,2.4l-2.3-6.9c4.2-1.9,8.4-3.1,14.5-3.1c5.8,0,10.1,1.5,12.8,4.3
				c2.8,2.8,4.2,6.9,4.2,11.9v22.9h-8.6v-4.8C492.6,348.9,488.6,351.4,482.7,351.4z M485.1,345c5.8,0,10.3-3.4,10.3-8.3v-2.6
				c-2.3-0.9-5.3-1.5-8.8-1.5c-5.7,0-9.1,2.4-9.1,6.4v0.1C477.6,342.9,480.9,345,485.1,345z M514.8,350.6v-53.3h8.8v53.3H514.8z
				 M535.6,350.6v-53.3h8.8v53.3H535.6z M573.5,351.5c-11.2,0-19.8-8.1-19.8-20v-0.1c0-11,7.8-20.1,18.8-20.1
				c12.3,0,18.5,9.6,18.5,20.7c0,0.8-0.1,1.6-0.1,2.5h-28.3c0.9,6.3,5.4,9.8,11.1,9.8c4.3,0,7.4-1.6,10.4-4.6l5.2,4.6
				C585.6,348.7,580.6,351.5,573.5,351.5z M562.4,328.6h19.8c-0.6-5.7-3.9-10.1-9.8-10.1C567,318.5,563.2,322.7,562.4,328.6z
				 M612.7,351.3c-6.5,0-11.1-2.8-11.1-11.3v-20.3h-4.9v-7.6h4.9v-10.6h8.8v10.6h10.4v7.6h-10.4v18.9c0,3.4,1.8,4.8,4.7,4.8
				c2,0,3.7-0.4,5.5-1.3v7.2C618.5,350.6,616.1,351.3,612.7,351.3z M123.2,316.5c-2.9-2.9-2.9-7.5,0-10.4c2.9-2.9,7.5-2.9,10.4,0
				c2.9,2.9,2.9,7.5,0,10.4C130.7,319.4,126.1,319.4,123.2,316.5z M98.6,341.2c-2.1-2.1-2.1-5.6,0-7.8c2.1-2.1,5.6-2.1,7.8,0
				c2.1,2.1,2.1,5.6,0,7.8C104.2,343.3,100.7,343.3,98.6,341.2z M137.5,328.2c-2.1-2.1-2.1-5.6,0-7.8c2.1-2.1,5.6-2.1,7.8,0
				c2.1,2.1,2.1,5.6,0,7.8C143.1,330.4,139.6,330.4,137.5,328.2z M124.5,341.2c-2.1-2.1-2.1-5.6,0-7.8c2.1-2.1,5.6-2.1,7.8,0
				c2.1,2.1,2.1,5.6,0,7.8C130.1,343.3,126.7,343.3,124.5,341.2z M151.8,339.9c-1.4-1.4-1.4-3.8,0-5.2c1.4-1.4,3.8-1.4,5.2,0
				c1.4,1.4,1.4,3.8,0,5.2C155.5,341.3,153.2,341.3,151.8,339.9z M138.8,352.9c-1.4-1.4-1.4-3.8,0-5.2c1.4-1.4,3.8-1.4,5.2,0
				c1.4,1.4,1.4,3.8,0,5.2C142.5,354.3,140.2,354.3,138.8,352.9z M110.2,329.5c-2.9-2.9-2.9-7.5,0-10.4c2.9-2.9,7.5-2.9,10.4,0
				c2.9,2.9,2.9,7.5,0,10.4C117.8,332.4,113.1,332.4,110.2,329.5z M110.2,303.6c-2.9-2.9-2.9-7.5,0-10.4c2.9-2.9,7.5-2.9,10.4,0
				c2.9,2.9,2.9,7.5,0,10.4C117.8,306.4,113.1,306.4,110.2,303.6z M97.3,316.5c-2.9-2.9-2.9-7.5,0-10.4c2.9-2.9,7.5-2.9,10.4,0
				c2.9,2.9,2.9,7.5,0,10.4C104.8,319.4,100.1,319.4,97.3,316.5z M71.2,316.5c-2.9-2.9-2.9-7.5,0-10.4c2.9-2.9,7.5-2.9,10.4,0
				c2.9,2.9,2.9,7.5,0,10.4C78.7,319.4,74.1,319.4,71.2,316.5z M46.5,341.2c-2.1-2.1-2.1-5.6,0-7.8c2.1-2.1,5.6-2.1,7.8,0
				c2.1,2.1,2.1,5.6,0,7.8C52.2,343.3,48.7,343.3,46.5,341.2z M85.5,328.2c-2.1-2.1-2.1-5.6,0-7.8c2.1-2.1,5.6-2.1,7.8,0
				c2.1,2.1,2.1,5.6,0,7.8C91.1,330.4,87.6,330.4,85.5,328.2z M72.5,341.2c-2.1-2.1-2.1-5.6,0-7.8c2.1-2.1,5.6-2.1,7.8,0
				c2.1,2.1,2.1,5.6,0,7.8C78.1,343.3,74.6,343.3,72.5,341.2z M21.9,339.9c-1.4-1.4-1.4-3.8,0-5.2c1.4-1.4,3.8-1.4,5.2,0
				c1.4,1.4,1.4,3.8,0,5.2C25.6,341.3,23.3,341.3,21.9,339.9z M34.9,352.9c-1.4-1.4-1.4-3.8,0-5.2c1.4-1.4,3.8-1.4,5.2,0
				c1.4,1.4,1.4,3.8,0,5.2C38.6,354.3,36.3,354.3,34.9,352.9z M86.8,352.9c-1.4-1.4-1.4-3.8,0-5.2c1.4-1.4,3.8-1.4,5.2,0
				c1.4,1.4,1.4,3.8,0,5.2C90.5,354.3,88.2,354.3,86.8,352.9z M33.6,328.2c-2.1-2.1-2.1-5.6,0-7.8c2.1-2.1,5.6-2.1,7.8,0
				c2.1,2.1,2.1,5.6,0,7.8C39.2,330.4,35.7,330.4,33.6,328.2z M58.2,329.5c-2.9-2.9-2.9-7.5,0-10.4c2.9-2.9,7.5-2.9,10.4,0
				c2.9,2.9,2.9,7.5,0,10.4C65.7,332.4,61.1,332.4,58.2,329.5z M58.2,303.6c-2.9-2.9-2.9-7.5,0-10.4c2.9-2.9,7.5-2.9,10.4,0
				c2.9,2.9,2.9,7.5,0,10.4C65.7,306.4,61.1,306.4,58.2,303.6z M45.2,316.5c-2.9-2.9-2.9-7.5,0-10.4c2.9-2.9,7.5-2.9,10.4,0
				c2.9,2.9,2.9,7.5,0,10.4C52.8,319.4,48.1,319.4,45.2,316.5z"/>
		</g>
	</g>
</g>
</svg>
